<svg xmlns="http://www.w3.org/2000/svg" width="15" height="15" viewBox="0 0 15 15">
  <metadata><?xpacket begin="﻿" id="W5M0MpCehiHzreSzNTczkc9d"?>
<x:xmpmeta xmlns:x="adobe:ns:meta/" x:xmptk="Adobe XMP Core 5.6-c138 79.159824, 2016/09/14-01:09:01        ">
   <rdf:RDF xmlns:rdf="http://www.w3.org/1999/02/22-rdf-syntax-ns#">
      <rdf:Description rdf:about=""/>
   </rdf:RDF>
</x:xmpmeta>
                                                                                                    
                                                                                                    
                                                                                                    
                                                                                                    
                                                                                                    
                                                                                                    
                                                                                                    
                                                                                                    
                                                                                                    
                                                                                                    
                                                                                                    
                                                                                                    
                                                                                                    
                                                                                                    
                                                                                                    
                                                                                                    
                                                                                                    
                                                                                                    
                                                                                                    
                                                                                                    
                           
<?xpacket end="w"?></metadata>
<defs>
    <style>
      .cls-1 {
        fill: #fff;
        fill-rule: evenodd;
      }
    </style>
  </defs>
  <path id="icon-phone" class="cls-1" d="M1156.47,41.5a0.535,0.535,0,0,1-.54-0.532,5.893,5.893,0,0,0-5.89-5.885,0.535,0.535,0,1,1,0-1.069,6.965,6.965,0,0,1,6.96,6.955A0.533,0.533,0,0,1,1156.47,41.5Zm-3.6.514a0.536,0.536,0,0,1-.54-0.534,2.808,2.808,0,0,0-2.8-2.8,0.535,0.535,0,1,1,0-1.07,3.88,3.88,0,0,1,3.87,3.874A0.534,0.534,0,0,1,1152.87,42.015Zm-1.3,6.977c-0.71,0-3.27-.236-6.3-3.261s-3.26-5.583-3.26-6.3c0-1.292,1.5-3.308,2.47-3.324h0.94a0.786,0.786,0,0,1,.73.487l1.25,2.972a0.79,0.79,0,0,1-.25.939,8.715,8.715,0,0,0-1.26,1.026,7.757,7.757,0,0,0,1.56,2.02,6.312,6.312,0,0,0,2.09,1.543c0.08-.063.53-0.663,0.96-1.238a0.8,0.8,0,0,1,.63-0.317,1.274,1.274,0,0,1,.31.061l2.98,1.246a0.793,0.793,0,0,1,.48.732v0.934C1154.89,47.492,1152.87,48.992,1151.57,48.992Zm-7.09-11.811a3.762,3.762,0,0,0-1.4,2.254c0,0.61.21,2.808,2.95,5.541s4.93,2.946,5.54,2.946a3.627,3.627,0,0,0,2.27-1.452l-0.01-.7-2.6-1.089c-0.84,1.105-1.15,1.483-1.69,1.491-0.9,0-2.4-1.423-2.84-1.858s-1.86-1.941-1.86-2.843c0-.543.38-0.853,1.49-1.682l-1.09-2.6h-0.76Z" transform="translate(-1142 -34)"/>
</svg>
