<svg version="1" xmlns="http://www.w3.org/2000/svg" width="1141.333" height="1141.333" viewBox="0 0 856.000000 856.000000"><path d="M80 347.9c0 277.4.3 348 1.3 348.3.6.2 33.9.3 73.8.3l72.5-.1v79.7l-.1 79.8 3.3-3.2c1.9-1.8 38-37.6 80.4-79.7l76.9-76.5 194.2-.1h194.2l.3-348.2L777 0H80v347.9zm623.1-273c.1.3.2 123.8.3 274.3l.1 273.8H358l-27.4 27.1c-15.1 14.9-27.8 26.9-28.2 26.7-.4-.1-.7-12.3-.7-27.1l.1-26.7H228c-68 0-73.9-.1-74.2-1.7-.2-.9-.1-19.4.2-41 .3-21.7.3-39.6.1-39.9-.6-.6-.3-13.2.3-14.3.4-.5.2-1.2-.4-1.6-.6-.4-.8-1-.5-1.5.3-.5.7-191.2.3-208 0-.8 0-4.4.1-8v-8c-.1-.8-.1-18.8-.1-40 .1-21.2.1-39.2.1-40 0-.8 0-2.4.1-3.5V212c-.1-.8-.1-3.3-.1-5.5v-6-64.1l.1-62.1h274.5c151 0 274.6.3 274.6.6z"/><path d="M383 233.1L275.7 340.2l55.1 55.2c30.3 30.3 55.7 55.8 56.5 56.6 49.1 49 109.5 109 109.8 109 .2 0 .4-23.6.4-52.4v-52.3l-58.1-58.1-58.1-58 54.9-54.7 54.8-54.8v-52.3c0-28.8-.2-52.4-.4-52.4S442 174.2 383 233.1z"/></svg>